<svg id="Layer_1" data-name="Layer 1" xmlns="http://www.w3.org/2000/svg" viewBox="0 0 128 128"><title>devices</title><circle cx="64" cy="64" r="64" style="fill:#e0995e" class="tile-bg"/><g style="opacity:0.2"><path d="M498.4,313a3.65,3.65,0,0,1-3.65,3.65h-36.5A3.65,3.65,0,0,1,454.6,313h0a3.65,3.65,0,0,1,3.65-3.65h36.5A3.65,3.65,0,0,1,498.4,313h0Z" transform="translate(-416 -216)" style="fill:#231f20"/></g><path d="M498.4,309.35a3.65,3.65,0,0,1-3.65,3.65h-36.5a3.65,3.65,0,0,1-3.65-3.65h0a3.65,3.65,0,0,1,3.65-3.65h36.5a3.65,3.65,0,0,1,3.65,3.65h0Z" transform="translate(-416 -216)" style="fill:#fff"/><path d="M485.63,294.75s-1.82,10.95,5.48,10.95H461.9c7.3,0,5.48-10.95,5.48-10.95h18.25Z" transform="translate(-416 -216)" style="fill:#e0e0d1"/><g style="opacity:0.2"><rect x="24" y="27.65" width="73" height="54.75" rx="7.3" ry="7.3" style="fill:#231f20"/></g><rect x="26.74" y="26.74" width="67.53" height="49.28" rx="4.56" ry="4.56" style="fill:#4f5d73"/><path d="M505.7,245.48a1.83,1.83,0,0,1,1.82,1.83v40.15a1.83,1.83,0,0,1-1.82,1.82H447.3a1.83,1.83,0,0,1-1.82-1.82V247.3a1.83,1.83,0,0,1,1.82-1.83h58.4m0-5.47H447.3a7.3,7.3,0,0,0-7.3,7.3v40.15a7.3,7.3,0,0,0,7.3,7.3h58.4a7.3,7.3,0,0,0,7.3-7.3V247.3a7.3,7.3,0,0,0-7.3-7.3h0Z" transform="translate(-416 -216)" style="fill:#fff"/><g style="opacity:0.2"><polygon points="93.35 74.88 93.35 27.43 50.01 27.43 77.3 74.88 93.35 74.88" style="fill:#fff"/></g><g style="opacity:0.2"><rect x="72" y="56.67" width="32" height="53.33" rx="5.33" ry="5.33" style="fill:#231f20"/></g><rect x="74" y="56" width="28" height="49.33" rx="3.33" ry="3.33" style="fill:#4f5d73"/><path d="M514.67,274a1.33,1.33,0,0,1,1.33,1.33V318a1.33,1.33,0,0,1-1.33,1.33H493.33A1.33,1.33,0,0,1,492,318V275.33a1.33,1.33,0,0,1,1.33-1.33h21.33m0-4H493.33a5.33,5.33,0,0,0-5.33,5.33V318a5.33,5.33,0,0,0,5.33,5.33h21.33A5.33,5.33,0,0,0,520,318V275.33a5.33,5.33,0,0,0-5.33-5.33h0Z" transform="translate(-416 -216)" style="fill:#fff"/><polygon points="98.67 107.33 77.33 107.33 72 96.67 104 96.67 98.67 107.33" style="fill:#fff"/><circle cx="88" cy="102" r="2.67" style="fill:#e0e0d1"/><g style="opacity:0.2"><polygon points="101.25 57.25 77.28 57.25 101.25 98.75 101.25 57.25" style="fill:#fff"/></g><path d="M445.75,319" transform="translate(-416 -216)" style="fill:#77b3d4"/><path d="M443.75,298" transform="translate(-416 -216)" style="fill:#77b3d4"/><path d="M459.75,313.8c9.2,0,9.55,3.05,13,6.1s10,4.06,10-6.1-4.6-16.27-4.6-16.27-4.4-7.53-10.4-1.64a11.75,11.75,0,0,1-16,0c-6-5.88-10.4,1.64-10.4,1.64s-4.6,6.11-4.6,16.27,6.55,9.15,10,6.1S450.55,313.8,459.75,313.8Z" transform="translate(-416 -216)" style="fill:#231f20;opacity:0.2"/><path d="M459.75,310.8c9.2,0,9.55,3.05,13,6.1s10,4.06,10-6.1-4.6-16.27-4.6-16.27-4.4-7.53-10.4-1.64a11.75,11.75,0,0,1-16,0c-6-5.88-10.4,1.64-10.4,1.64s-4.6,6.11-4.6,16.27,6.55,9.15,10,6.1S450.55,310.8,459.75,310.8Z" transform="translate(-416 -216)" style="fill:#4f5d73"/><circle cx="55.75" cy="92" r="2" style="fill:#e0e0d1"/><circle cx="59.75" cy="87" r="2" style="fill:#e0e0d1"/><path d="M446.75,309.5a1.5,1.5,0,0,1-1.5,1.5h0a1.5,1.5,0,0,1-1.5-1.5v-7a1.5,1.5,0,0,1,1.5-1.5h0a1.5,1.5,0,0,1,1.5,1.5v7Z" transform="translate(-416 -216)" style="fill:#e0e0d1"/><path d="M441.75,307.5a1.5,1.5,0,0,1-1.5-1.5h0a1.5,1.5,0,0,1,1.5-1.5h7a1.5,1.5,0,0,1,1.5,1.5h0a1.5,1.5,0,0,1-1.5,1.5h-7Z" transform="translate(-416 -216)" style="fill:#e0e0d1"/></svg>