<?xml version="1.0" encoding="utf-8"?>
<!-- Generator: Adobe Illustrator 19.2.0, SVG Export Plug-In . SVG Version: 6.00 Build 0)  -->
<svg version="1.1" id="Layer_1" xmlns="http://www.w3.org/2000/svg" xmlns:xlink="http://www.w3.org/1999/xlink" x="0px" y="0px"
	 viewBox="0 0 85.3 69.6" style="enable-background:new 0 0 85.3 69.6;" xml:space="preserve">
<style type="text/css">
	.st0{fill:#A3A3A3;}
	.st1{fill:#AFAFAF;}
	.st2{fill:#CFD8E5;}
	.st3{fill:#E2E9F2;}
	.st4{fill:#4D4D4D;stroke:#000000;stroke-width:0.4;stroke-miterlimit:10;}
	.st5{fill:url(#SVGID_1_);}
	.st6{fill:#FFFFFF;fill-opacity:0.2039;}
	.st7{fill:url(#SVGID_2_);}
	.st8{fill:url(#SVGID_3_);}
	.st9{fill:url(#SVGID_4_);}
	.st10{fill:url(#SVGID_5_);}
	.st11{fill:url(#SVGID_6_);}
	.st12{fill:url(#SVGID_7_);}
	.st13{fill:url(#SVGID_8_);}
	.st14{fill:url(#SVGID_9_);}
	.st15{fill:url(#SVGID_10_);}
	.st16{fill:url(#SVGID_11_);}
	.st17{fill:url(#SVGID_12_);}
	.st18{fill:url(#SVGID_13_);}
</style>
<path class="st0" d="M0,65.4h85.3V0H0V65.4z"/>
<path class="st1" d="M83.6,63.7H1.5V1.7h82.2V63.7z"/>
<path class="st2" d="M80.7,59.6H4V13.3h76.8V59.6z"/>
<path class="st3" d="M79.6,58.4H4.8v-44h74.7V58.4z"/>
<g>
	<path class="st0" d="M80.7,7.3c0,2.4-1.9,4.3-4.3,4.3c-2.4,0-4.3-1.9-4.3-4.3S74,3,76.4,3C78.8,3,80.7,5,80.7,7.3z"/>
	<path class="st4" d="M80.1,7.3c0,2-1.7,3.7-3.7,3.7c-2,0-3.7-1.7-3.7-3.7s1.7-3.7,3.7-3.7C78.4,3.6,80.1,5.3,80.1,7.3z"/>
	<path class="st0" d="M69.5,7.3c0,2.4-1.9,4.3-4.3,4.3c-2.4,0-4.3-1.9-4.3-4.3S62.8,3,65.2,3C67.6,3,69.5,5,69.5,7.3z"/>
	<path class="st3" d="M68.9,7.3c0,2-1.7,3.7-3.7,3.7c-2,0-3.7-1.7-3.7-3.7s1.7-3.7,3.7-3.7C67.2,3.6,68.9,5.3,68.9,7.3z"/>
	<path class="st0" d="M58.1,7.3c0,2.4-1.9,4.3-4.3,4.3c-2.4,0-4.3-1.9-4.3-4.3S51.4,3,53.8,3C56.2,3,58.1,5,58.1,7.3z"/>
	<path class="st3" d="M57.5,7.3c0,2-1.7,3.7-3.7,3.7c-2,0-3.7-1.7-3.7-3.7s1.7-3.7,3.7-3.7C55.8,3.6,57.5,5.3,57.5,7.3z"/>
</g>
<linearGradient id="SVGID_1_" gradientUnits="userSpaceOnUse" x1="-258.4297" y1="424.6576" x2="-258.4297" y2="426.5829" gradientTransform="matrix(85.3333 0 0 -65.4053 22095.3242 27902.6289)">
	<stop  offset="0" style="stop-color:#FFFFFF;stop-opacity:0.102"/>
	<stop  offset="0.13" style="stop-color:#FFFFFF;stop-opacity:7.843138e-02"/>
	<stop  offset="1" style="stop-color:#FFFFFF;stop-opacity:5.098039e-02"/>
</linearGradient>
<path class="st5" d="M0,65.4h85.3V0H0V65.4z"/>
<g>
	<path class="st6" d="M8.1,0l48.2,65.4h20.1L28.2,0H8.1z"/>
	<path class="st6" d="M38,0l47.4,64.3V50.7L48,0H38z"/>
</g>
<linearGradient id="SVGID_2_" gradientUnits="userSpaceOnUse" x1="-234.4972" y1="394.6278" x2="-234.4972" y2="396.0402" gradientTransform="matrix(9.7027 0 0 -9.704 2316.5549 3857.7971)">
	<stop  offset="0" style="stop-color:#8BC6FF"/>
	<stop  offset="1" style="stop-color:#008BFF"/>
</linearGradient>
<path class="st7" d="M36.4,27.8h9.7v-9.7h-9.7V27.8z"/>
<linearGradient id="SVGID_3_" gradientUnits="userSpaceOnUse" x1="-234.4972" y1="394.4035" x2="-234.4972" y2="396.4035" gradientTransform="matrix(9.7027 0 0 -9.7054 2316.5549 3900.1255)">
	<stop  offset="0" style="stop-color:#8BC6FF"/>
	<stop  offset="1" style="stop-color:#008BFF"/>
</linearGradient>
<path class="st8" d="M36.4,69.6h9.7v-9.7h-9.7V69.6z"/>
<linearGradient id="SVGID_4_" gradientUnits="userSpaceOnUse" x1="-236.3731" y1="395.1789" x2="-233.7228" y2="395.1789" gradientTransform="matrix(9.704 0 0 -9.704 2337.5488 3878.6582)">
	<stop  offset="0" style="stop-color:#8BC6FF"/>
	<stop  offset="1" style="stop-color:#008BFF"/>
</linearGradient>
<path class="st9" d="M57.1,48.7h9.7V39h-9.7V48.7z"/>
<linearGradient id="SVGID_5_" gradientUnits="userSpaceOnUse" x1="-235.0854" y1="395.1789" x2="-230.2305" y2="395.1789" gradientTransform="matrix(9.7053 0 0 -9.704 2296.1633 3878.6582)">
	<stop  offset="0" style="stop-color:#8BC6FF"/>
	<stop  offset="1" style="stop-color:#008BFF"/>
</linearGradient>
<path class="st10" d="M15.4,48.7h9.7V39h-9.7V48.7z"/>
<linearGradient id="SVGID_6_" gradientUnits="userSpaceOnUse" x1="-266.789" y1="399.2256" x2="-265.5246" y2="399.2256" gradientTransform="matrix(9.7058 -9.7057 -9.7086 -9.7029 6512.7075 1322.0168)">
	<stop  offset="0" style="stop-color:#8BC6FF"/>
	<stop  offset="1" style="stop-color:#008BFF"/>
</linearGradient>
<path class="st11" d="M49.1,29.2l6.9,6.9l6.9-6.9l-6.9-6.9L49.1,29.2z"/>
<linearGradient id="SVGID_7_" gradientUnits="userSpaceOnUse" x1="-266.4135" y1="399.583" x2="-263.8669" y2="399.583" gradientTransform="matrix(9.7057 -9.7058 -9.7029 -9.7086 6485.6729 1355.9807)">
	<stop  offset="0" style="stop-color:#8BC6FF"/>
	<stop  offset="1" style="stop-color:#008BFF"/>
</linearGradient>
<path class="st12" d="M19.5,58.7l6.9,6.9l6.9-6.9l-6.9-6.9L19.5,58.7z"/>
<linearGradient id="SVGID_8_" gradientUnits="userSpaceOnUse" x1="-231.2196" y1="428.2165" x2="-228.6109" y2="428.2165" gradientTransform="matrix(9.7052 9.7053 9.7071 -9.7034 -1875.8381 6438.9009)">
	<stop  offset="0" style="stop-color:#8BC6FF"/>
	<stop  offset="1" style="stop-color:#008BFF"/>
</linearGradient>
<path class="st13" d="M48.9,58.6l6.9,6.9l6.9-6.9l-6.9-6.9L48.9,58.6z"/>
<linearGradient id="SVGID_9_" gradientUnits="userSpaceOnUse" x1="-242.7073" y1="406.1159" x2="-240.5247" y2="403.9333" gradientTransform="matrix(13.724 0 0 -13.724 3353.0896 5598.5366)">
	<stop  offset="0" style="stop-color:#8BC6FF"/>
	<stop  offset="1" style="stop-color:#008BFF"/>
</linearGradient>
<path class="st14" d="M19.4,29.1l6.9,6.9l6.9-6.9l-6.9-6.9L19.4,29.1z"/>
<linearGradient id="SVGID_10_" gradientUnits="userSpaceOnUse" x1="-255.7215" y1="423.0531" x2="-254.7215" y2="423.0531" gradientTransform="matrix(41.7294 0 0 -41.7267 10691.3281 17696.4531)">
	<stop  offset="0" style="stop-color:#8BC6FF"/>
	<stop  offset="1" style="stop-color:#008BFF"/>
</linearGradient>
<path class="st15" d="M20.2,43.8c0,11.5,9.3,20.9,20.9,20.9l0,0c11.5,0,20.9-9.3,20.9-20.9l0,0C62,32.3,52.6,23,41.1,23l0,0
	C29.6,23,20.2,32.3,20.2,43.8z M30.2,43.6c0-6,4.9-10.9,10.9-10.9l0,0c6,0,10.9,4.9,10.9,10.9l0,0c0,6-4.9,10.9-10.9,10.9l0,0
	C35.1,54.6,30.2,49.7,30.2,43.6z"/>
<linearGradient id="SVGID_11_" gradientUnits="userSpaceOnUse" x1="-251.3517" y1="417.9998" x2="-252.3143" y2="418.9343" gradientTransform="matrix(26.8974 0 0 -26.896 6812.7603 11297.0088)">
	<stop  offset="0" style="stop-color:#8BC6FF"/>
	<stop  offset="1" style="stop-color:#0079FF"/>
</linearGradient>
<path class="st16" d="M27.6,43.8c0,7.4,6,13.4,13.4,13.4l0,0c7.4,0,13.4-6,13.4-13.4l0,0c0-7.4-6-13.4-13.4-13.4l0,0
	C33.7,30.4,27.6,36.4,27.6,43.8z M30.4,43.8c0-6,4.9-10.9,10.9-10.9l0,0c6,0,10.9,4.9,10.9,10.9l0,0c0,6-4.9,10.9-10.9,10.9l0,0
	C35.3,54.8,30.4,49.9,30.4,43.8z"/>
<linearGradient id="SVGID_12_" gradientUnits="userSpaceOnUse" x1="-227.4756" y1="387.0268" x2="-228.8687" y2="385.5921" gradientTransform="matrix(7.8254 0 0 -7.8267 1825.6404 3068.6047)">
	<stop  offset="0" style="stop-color:#8BC6FF"/>
	<stop  offset="1" style="stop-color:#0079FF"/>
</linearGradient>
<path class="st17" d="M37.4,43.8c0,2.2,1.8,3.9,3.9,3.9l0,0c2.2,0,3.9-1.8,3.9-3.9l0,0c0-2.2-1.8-3.9-3.9-3.9l0,0
	C39.1,39.9,37.4,41.7,37.4,43.8z"/>
<linearGradient id="SVGID_13_" gradientUnits="userSpaceOnUse" x1="-207.1113" y1="357.6817" x2="-206.1113" y2="357.6817" gradientTransform="matrix(4.7733 0 0 -4.7747 1028.1926 1751.1105)">
	<stop  offset="0" style="stop-color:#8BC6FF;stop-opacity:0.302"/>
	<stop  offset="1" style="stop-color:#8FD4FF;stop-opacity:0.302"/>
</linearGradient>
<path class="st18" d="M39.6,43.3c0-1.3,1.1-2.4,2.4-2.4c1.3,0,2.4,1.1,2.4,2.4c0,1.3-1.1,2.4-2.4,2.4C40.7,45.7,39.6,44.6,39.6,43.3
	z"/>
</svg>
