<svg id="Layer_1" data-name="Layer 1" xmlns="http://www.w3.org/2000/svg" viewBox="0 0 128 128"><title>profile</title><circle cx="64" cy="64" r="64" style="fill:#4f5d73" class="tile-bg"/><g style="opacity:0.2"><path d="M87.81,95.09c-7.64-3.32-10.43-8.48-11.29-12.94C82,77.72,86.41,70.64,88.82,63c2.48-3.16,3.92-6.45,3.92-9.24a5.32,5.32,0,0,0-1.91-4.32C90.43,33.24,78.95,20.22,64.76,20l-0.33,0H64.3C50.19,20.09,38.73,32.83,38,48.82a5.35,5.35,0,0,0-2.79,4.94c0,3.28,2,7.26,5.33,10.9,2.37,6.65,6.24,12.76,11,16.88-0.71,4.58-3.4,10.08-11.39,13.55C35.87,97,28,98.65,24.57,100.38c8.72,9.54,25.25,15.54,39.18,15.61H64c14,0,30.65-6,39.43-15.62C100,98.65,92.13,97,87.81,95.09Z" style="fill:#231f20"/></g><path d="M87.81,91.09c-7.64-3.32-10.43-8.48-11.29-12.94C82,73.72,86.41,66.64,88.82,59c2.48-3.16,3.92-6.45,3.92-9.24a5.32,5.32,0,0,0-1.91-4.32C90.43,29.24,78.95,16.22,64.76,16l-0.33,0H64.3C50.19,16.09,38.73,28.83,38,44.82a5.35,5.35,0,0,0-2.79,4.94c0,3.28,2,7.26,5.33,10.9,2.37,6.65,6.24,12.76,11,16.88-0.71,4.58-3.4,10.08-11.39,13.55C35.87,93,28,94.65,24.57,96.38c8.72,9.54,25.25,15.54,39.18,15.61H64c14,0,30.65-6,39.43-15.62C100,94.65,92.13,93,87.81,91.09Z" style="fill:#fff"/></svg>