<svg id="Layer_1" data-name="Layer 1" xmlns="http://www.w3.org/2000/svg" viewBox="0 0 64 64"><title>usage</title><circle cx="32" cy="32" r="32" style="fill:#76c2af" class="tile-bg"/><path d="M113.13,548.5a1.5,1.5,0,0,1-1.23-.63l-10.28-14.56-7.79,5.19a1.5,1.5,0,0,1-1.66-2.5l9-6a1.5,1.5,0,0,1,2.06.38L113,544.16l10.72-19.75a1.5,1.5,0,0,1,2.51-.2l13,16.88a1.5,1.5,0,1,1-2.38,1.83l-11.59-15-10.78,19.85a1.5,1.5,0,0,1-1.23.78h-0.09Z" transform="translate(-84 -504)" style="fill:#fff"/><circle cx="41" cy="23.13" r="4.38" style="fill:#c75c5c"/><g style="opacity:0.2"><path d="M113.13,550.5a1.5,1.5,0,0,1-1.23-.63l-10.28-14.56-7.79,5.19a1.5,1.5,0,0,1-1.66-2.5l9-6a1.5,1.5,0,0,1,2.06.38L113,546.16l10.72-19.75a1.5,1.5,0,0,1,2.51-.2l13,16.88a1.5,1.5,0,1,1-2.38,1.83l-11.59-15-10.78,19.85a1.5,1.5,0,0,1-1.23.78h-0.09Z" transform="translate(-84 -504)" style="fill:#231f20"/></g><path d="M113.13,548.5a1.5,1.5,0,0,1-1.23-.63l-10.28-14.56-7.79,5.19a1.5,1.5,0,0,1-1.66-2.5l9-6a1.5,1.5,0,0,1,2.06.38L113,544.16l10.72-19.75a1.5,1.5,0,0,1,2.51-.2l13,16.88a1.5,1.5,0,1,1-2.38,1.83l-11.59-15-10.78,19.85a1.5,1.5,0,0,1-1.23.78h-0.09Z" transform="translate(-84 -504)" style="fill:#fff"/><g style="opacity:0.2"><circle cx="41" cy="25.13" r="4.38" style="fill:#231f20"/></g><circle cx="41" cy="23.13" r="4.38" style="fill:#4f5d73"/></svg>